<?xml version="1.0" standalone="no"?>
<!DOCTYPE svg PUBLIC "-//W3C//DTD SVG 20010904//EN"
 "http://www.w3.org/TR/2001/REC-SVG-20010904/DTD/svg10.dtd">
<svg version="1.0" xmlns="http://www.w3.org/2000/svg"
 width="841.000000pt" height="841.000000pt" viewBox="0 0 841.000000 841.000000"
 preserveAspectRatio="xMidYMid meet">
<metadata>
Created by potrace 1.11, written by Peter Selinger 2001-2013
</metadata>
<g transform="translate(0.000000,841.000000) scale(0.100000,-0.100000)"
fill="#000000" stroke="none">
<path d="M4249 7267 c-164 -118 -284 -225 -420 -378 -249 -278 -428 -625 -513
-990 -32 -140 -36 -164 -51 -309 -34 -346 23 -741 154 -1068 62 -154 228 -444
315 -547 23 -27 53 -66 68 -85 14 -19 61 -71 104 -115 69 -70 108 -106 224
-209 14 -12 45 -37 70 -56 25 -19 47 -37 50 -40 3 -3 86 -66 185 -139 99 -74
199 -148 222 -165 23 -17 54 -40 69 -51 147 -106 244 -190 244 -211 0 -10 -28
0 -92 32 -206 104 -360 138 -618 138 -245 -1 -478 -37 -705 -111 -70 -22 -354
-131 -440 -168 -260 -111 -395 -140 -650 -139 -175 0 -198 3 -290 28 -98 27
-266 102 -338 151 -35 23 -37 23 -37 5 0 -54 41 -200 82 -290 53 -117 212
-303 344 -401 32 -24 68 -52 79 -62 11 -10 33 -25 49 -34 15 -8 49 -29 75 -47
25 -18 72 -47 103 -66 31 -18 55 -37 52 -41 -9 -15 -188 -67 -264 -77 -154
-21 -386 4 -562 61 -27 8 -48 11 -48 6 0 -27 85 -185 138 -255 95 -129 242
-236 483 -352 178 -86 360 -143 574 -178 169 -28 538 -26 698 4 305 57 562
187 882 445 318 256 500 315 743 242 30 -9 56 -15 58 -13 2 3 -1 31 -7 64 -13
68 -15 156 -6 334 8 173 -8 267 -72 413 -24 56 -26 77 -8 77 14 0 104 -132
131 -195 10 -22 25 -53 33 -70 8 -16 16 -37 19 -45 2 -8 8 -33 14 -55 22 -85
24 -104 23 -240 -1 -120 -5 -153 -27 -230 -29 -97 -70 -191 -116 -267 -21 -34
-26 -48 -16 -48 8 0 16 4 18 9 3 9 123 143 178 200 14 14 40 44 59 66 18 22
52 60 75 85 51 56 172 217 219 290 48 76 139 263 164 335 66 190 79 247 94
410 6 61 17 135 25 166 19 74 18 284 -2 441 -60 472 -241 934 -544 1388 -209
312 -425 570 -645 770 -63 57 -115 112 -115 122 0 9 -14 24 -32 33 -18 9 -42
23 -53 33 -55 46 -235 280 -299 387 -35 58 -107 229 -122 290 -4 17 -8 32 -9
35 -17 63 -26 171 -22 277 7 163 10 183 59 331 22 67 38 126 36 131 -2 5 -42
-19 -89 -52z"/>
</g>
</svg>
